HIERARCHY
ROOT hip
{
	OFFSET 0.000000 0.000000 0.000000
	CHANNELS 6 Xposition Yposition Zposition Xrotation Zrotation Yrotation 
	JOINT abdomen
	{
		OFFSET 0.000000 3.422050 0.000000
		CHANNELS 3 Xrotation Zrotation Yrotation 
		JOINT chest
		{
			OFFSET 0.000000 8.486693 -0.684411
			CHANNELS 3 Xrotation Zrotation Yrotation 
			JOINT neck
			{
				OFFSET 0.000000 10.266162 -0.273764
				CHANNELS 3 Xrotation Zrotation Yrotation 
				JOINT head
				{
					OFFSET 0.000000 3.148285 0.000000
					CHANNELS 3 Xrotation Zrotation Yrotation 
					End Site
					{
						OFFSET 0.000000 3.148289 0.000000
					}
				}
			}
			JOINT lCollar
			{
				OFFSET 3.422053 6.707223 -0.821293
				CHANNELS 3 Yrotation Zrotation Xrotation 
				JOINT lShldr
				{
					OFFSET 3.285171 0.000000 0.000000
					CHANNELS 3 Zrotation Yrotation Xrotation 
					JOINT lForeArm
					{
						OFFSET 10.129278 0.000000 0.000000
						CHANNELS 3 Yrotation Zrotation Xrotation 
						JOINT lHand
						{
							OFFSET 8.486692 0.000000 0.000000
							CHANNELS 3 Zrotation Yrotation Xrotation 
							End Site
							{
								OFFSET 4.106464 0.000000 0.000000
							}
						}
					}
				}
			}
			JOINT rCollar
			{
				OFFSET -3.558935 6.707223 -0.821293
				CHANNELS 3 Yrotation Zrotation Xrotation 
				JOINT rShldr
				{
					OFFSET -3.148289 0.000000 0.000000
					CHANNELS 3 Zrotation Yrotation Xrotation 
					JOINT rForeArm
					{
						OFFSET -10.266159 0.000000 0.000000
						CHANNELS 3 Yrotation Zrotation Xrotation 
						JOINT rHand
						{
							OFFSET -8.349810 0.000000 0.000000
							CHANNELS 3 Zrotation Yrotation Xrotation 
							End Site
							{
								OFFSET -4.106464 0.000000 0.000000
							}
						}
					}
				}
			}
		}
	}
	JOINT lThigh
	{
		OFFSET 5.338403 -1.642589 1.368821
		CHANNELS 3 Xrotation Zrotation Yrotation 
		JOINT lShin
		{
			OFFSET -2.053232 -20.121670 0.000000
			CHANNELS 3 Xrotation Zrotation Yrotation 
			JOINT lFoot
			{
				OFFSET 0.000000 -19.300380 -1.231939
				CHANNELS 3 Xrotation Yrotation Zrotation 
				End Site
				{
					OFFSET 0.000000 -2.463878 4.653993
				}
			}
		}
	}
	JOINT rThigh
	{
		OFFSET -5.338403 -1.642589 1.368821
		CHANNELS 3 Xrotation Zrotation Yrotation 
		JOINT rShin
		{
			OFFSET 2.053232 -20.121670 0.000000
			CHANNELS 3 Xrotation Zrotation Yrotation 
			JOINT rFoot
			{
				OFFSET 0.000000 -19.300380 -1.231939
				CHANNELS 3 Xrotation Yrotation Zrotation 
				End Site
				{
					OFFSET 0.000000 -2.463878 4.653993
				}
			}
		}
	}
}
MOTION
Frames: 15
Frame Time: 0.033325
0.000000 43.528500 0.000000 0.000000 0.000000 0.000000 0.000000 0.000000 0.000000 0.000000 0.000000 0.000000 0.000000 0.000000 0.000000 0.000000 0.000000 0.000000 0.000000 0.000000 0.000000 0.000000 0.000000 0.000000 0.000000 0.000000 0.000000 0.000000 0.000000 0.000000 0.000000 0.000000 0.000000 0.000000 0.000000 0.000000 0.000000 0.000000 0.000000 0.000000 0.000000 0.000000 0.000000 0.000000 0.000000 0.000000 0.000000 0.000000 0.000000 0.000000 0.000000 0.000000 0.000000 0.000000 0.000000 0.000000 0.000000 0.000000 0.000000 0.000000 
7.998947 1.995800 7.998947 -115.004364 0.000000 0.000000 83.998894 0.000000 0.000000 19.998167 0.000000 0.000000 30.999151 0.000000 0.000000 -35.000443 0.000000 0.000000 0.000000 0.000000 0.000000 -75.999939 4.996779 0.000451 -81.003273 0.000000 0.000000 24.997551 0.000000 0.000000 17.997807 8.999632 0.999454 72.997787 54.001511 29.996616 5.999485 4.996978 0.998127 40.998127 -20.001020 0.996610 -52.004253 41.997978 -30.003229 140.994720 0.000000 0.000000 2.999194 -0.003497 -1.002185 -62.002541 -50.000759 29.999308 134.993393 -0.000002 0.000001 20.996786 0.000000 0.000000 
7.998947 1.995800 7.784395 -115.004379 0.000000 0.000000 83.998894 0.000000 0.000000 19.998167 0.000000 0.000000 30.999151 0.000000 0.000000 -35.959091 0.000000 0.000000 0.000000 0.000000 0.000000 -75.999939 4.996779 0.000451 -81.003281 0.000000 0.000000 24.997551 0.000000 0.000000 17.962040 8.666218 0.963505 72.997391 54.371723 29.996378 5.999485 4.996978 0.998127 39.593189 -19.096516 0.004764 -51.479973 41.498852 -29.965078 139.854843 0.000000 -0.000000 2.999194 -0.003497 -1.002185 -60.845524 -49.362877 29.879810 134.137894 -0.000002 0.000001 20.996786 0.000000 0.000000 
7.998947 1.995800 7.569843 -115.004364 0.000000 0.000000 83.998894 0.000000 0.000000 19.998167 0.000000 0.000000 30.999151 0.000000 0.000000 -36.920143 0.000000 0.000000 0.000000 0.000000 0.000000 -75.999947 4.996779 0.000451 -81.003273 0.000000 0.000000 24.997551 0.000000 0.000000 17.926088 8.332790 0.927372 72.996956 54.741962 29.996119 5.999485 4.996978 0.998127 38.173130 -18.211456 -1.009397 -50.959866 40.999241 -29.933239 138.713623 0.000000 -0.000000 2.999194 -0.003497 -1.002185 -59.703701 -48.722675 29.781279 133.281830 -0.000002 0.000001 20.996786 0.000000 0.000000 
7.998947 1.995800 7.355290 -115.004379 0.000000 0.000000 83.998894 0.000000 0.000000 19.998167 0.000000 0.000000 30.999149 0.000000 0.000000 -37.883492 0.000000 0.000000 0.000000 0.000000 0.000000 -75.999939 4.996779 0.000451 -81.003273 0.000000 0.000000 24.997549 0.000000 0.000000 17.889946 7.999354 0.891055 72.996521 55.112236 29.995852 5.999485 4.996978 0.998127 36.738544 -17.347452 -2.045102 -50.443821 40.499245 -29.907598 137.571274 0.000000 -0.000000 2.999193 -0.003497 -1.002185 -58.576462 -48.080532 29.702990 132.425262 -0.000002 0.000001 20.996786 0.000000 0.000000 
7.998947 1.995800 7.140738 -115.004364 0.000000 0.000000 83.998894 0.000000 0.000000 19.998165 0.000000 0.000000 30.999149 0.000000 0.000000 -38.848988 0.000000 0.000000 0.000000 0.000000 0.000000 -75.999924 4.996778 0.000451 -81.003273 0.000000 0.000000 24.997549 0.000000 0.000000 17.853619 7.665919 0.854553 72.996094 55.482555 29.995586 5.999485 4.996978 0.998127 35.290104 -16.506056 -3.101495 -49.931721 39.998951 -29.888027 136.428009 0.000000 -0.000000 2.999193 -0.003497 -1.002185 -57.463326 -47.436897 29.644320 131.568344 -0.000002 0.000001 20.996786 0.000000 0.000000 
7.998947 1.995800 6.926186 -115.004364 0.000000 0.000000 83.998894 0.000000 0.000000 19.998167 0.000000 0.000000 30.999151 0.000000 0.000000 -39.816505 0.000000 0.000000 0.000000 0.000000 0.000000 -75.999939 4.996779 0.000451 -81.003273 0.000000 0.000000 24.997549 0.000000 0.000000 17.817106 7.332491 0.817863 72.995651 55.852890 29.995308 5.999485 4.996978 0.998127 33.828594 -15.688787 -4.177640 -49.423431 39.498428 -29.874388 135.284042 0.000001 -0.000000 2.999194 -0.003497 -1.002185 -56.363750 -46.792152 29.604599 130.711121 -0.000002 0.000001 20.996786 0.000000 0.000000 
7.998947 1.995800 6.711634 -115.004364 0.000000 0.000000 83.998894 0.000000 0.000000 19.998167 0.000000 0.000000 30.999151 0.000000 0.000000 -40.785927 0.000000 0.000000 0.000000 0.000000 0.000000 -75.999939 4.996779 0.000451 -81.003273 0.000000 0.000000 24.997551 0.000000 0.000000 17.780397 6.999072 0.780985 72.995239 56.223263 29.995039 5.999485 4.996978 0.998127 32.354870 -14.897099 -5.272509 -48.918846 38.997761 -29.866566 134.139633 0.000001 -0.000000 2.999194 -0.003497 -1.002185 -55.277275 -46.146717 29.583216 129.853699 -0.000002 0.000001 20.996786 0.000000 0.000000 
7.998947 1.995800 6.497082 -115.004364 0.000000 0.000000 83.998894 0.000000 0.000000 19.998167 0.000000 0.000000 30.999151 0.000000 0.000000 -41.757095 0.000000 0.000000 0.000000 0.000000 0.000000 -75.999939 4.996779 0.000451 -81.003281 0.000000 0.000000 24.997551 0.000000 0.000000 17.743504 6.665673 0.743917 72.994781 56.593620 29.994749 5.999485 4.996979 0.998127 30.869902 -14.132379 -6.385000 -48.417812 38.497009 -29.864422 132.994995 0.000001 -0.000000 2.999194 -0.003497 -1.002185 -54.203407 -45.500961 29.579542 128.996185 -0.000002 0.000001 20.996786 0.000000 0.000000 
7.998947 1.995800 6.282529 -115.004364 0.000000 0.000000 83.998894 0.000000 0.000000 19.998167 0.000000 0.000000 30.999151 0.000000 0.000000 -42.729900 0.000000 0.000000 0.000000 0.000000 0.000000 -75.999931 4.996779 0.000451 -81.003258 0.000000 0.000000 24.997549 0.000000 0.000000 17.706415 6.332297 0.706657 72.994308 56.963982 29.994438 5.999484 4.996978 0.998127 29.374697 -13.395922 -7.513924 -47.920254 37.996269 -29.867851 131.850342 0.000001 -0.000000 2.999194 -0.003497 -1.002185 -53.141693 -44.855255 29.592974 128.138672 -0.000002 0.000001 20.996784 0.000000 0.000000 
7.998947 1.995800 6.067977 -115.004364 0.000000 0.000000 83.998894 0.000000 0.000000 19.998167 0.000000 0.000000 30.999149 0.000000 0.000000 -43.704185 0.000000 0.000000 0.000000 0.000000 0.000000 -75.999939 4.996779 0.000451 -81.003273 0.000000 0.000000 24.997551 0.000000 0.000000 17.669134 5.998952 0.669205 72.993828 57.334324 29.994127 5.999485 4.996978 0.998127 27.870394 -12.688938 -8.658016 -47.426056 37.495613 -29.876743 130.705948 0.000001 -0.000000 2.999193 -0.003497 -1.002185 -52.091728 -44.209991 29.622936 127.281242 -0.000002 0.000001 20.996786 0.000000 0.000000 
7.998947 1.995800 5.853425 -115.004364 0.000000 0.000000 83.998894 0.000000 0.000000 19.998167 0.000000 0.000000 30.999151 0.000000 0.000000 -44.679817 0.000000 0.000000 0.000000 0.000000 0.000000 -75.999931 4.996779 0.000451 -81.003273 0.000000 0.000000 24.997551 0.000000 0.000000 17.631653 5.665640 0.631558 72.993355 57.704670 29.993816 5.999485 4.996978 0.998127 26.358175 -12.012537 -9.815946 -46.935085 36.995094 -29.890968 129.561981 0.000001 -0.000001 2.999194 -0.003497 -1.002185 -51.053116 -43.565544 29.668880 126.424026 -0.000002 0.000001 20.996786 0.000000 0.000000 
7.998947 1.995800 5.638873 -115.004364 0.000000 0.000000 83.998894 0.000000 0.000000 19.998167 0.000000 0.000000 30.999151 0.000000 0.000000 -45.656662 0.000000 0.000000 0.000000 0.000000 0.000000 -75.999939 4.996779 0.000451 -81.003273 0.000000 0.000000 24.997551 0.000000 0.000000 17.593983 5.332374 0.593715 72.992859 58.074974 29.993484 5.999485 4.996978 0.998127 24.839306 -11.367718 -10.986307 -46.447285 36.494820 -29.910440 128.418701 0.000001 -0.000001 2.999194 -0.003497 -1.002185 -50.025433 -42.922249 29.730219 125.567085 -0.000002 0.000001 20.996786 0.000000 0.000000 
7.998947 1.995800 5.424321 -115.004379 0.000000 0.000000 83.998894 0.000000 0.000000 19.998167 0.000000 0.000000 30.999151 0.000000 0.000000 -46.634579 0.000000 0.000000 0.000000 0.000000 0.000000 -75.999939 4.996779 0.000451 -81.003273 0.000000 0.000000 24.997551 0.000000 0.000000 17.556108 4.999153 0.555675 72.992378 58.445267 29.993156 5.999485 4.996978 0.998127 23.315102 -10.755358 -12.167643 -45.962536 35.994850 -29.935045 127.276344 0.000001 -0.000001 2.999194 -0.003497 -1.002185 -49.008354 -42.280468 29.806448 124.710541 -0.000002 0.000001 20.996786 0.000000 0.000000 
7.998947 1.995800 5.209768 -115.004364 0.000000 0.000000 83.998894 0.000000 0.000000 19.998169 0.000000 0.000000 30.999151 0.000000 0.000000 -47.613422 0.000000 0.000000 0.000000 0.000000 0.000000 -75.999939 4.996779 0.000451 -81.003273 0.000000 0.000000 24.997551 0.000000 0.000000 17.518036 4.665987 0.517436 72.991867 58.815510 29.992809 5.999485 4.996978 0.998127 21.786961 -10.176224 -13.358444 -45.480740 35.495266 -29.964680 126.135117 0.000001 -0.000001 2.999194 -0.003497 -1.002185 -48.001476 -41.640526 29.897009 123.854469 -0.000002 0.000001 20.996786 0.000000 0.000000 
